<svg width="0" height="0" class="hidden">
  <symbol fill="none" xmlns="http://www.w3.org/2000/svg" viewBox="0 0 19 16" id="J_">
    <path d="M4.64844 15.1953C3.82161 15.1953 3.07943 15.0488 2.42188 14.7559C1.76432 14.4564 1.24349 14.0202 0.859375 13.4473C0.47526 12.8743 0.283203 12.1777 0.283203 11.3574V11.0742H2.46094V11.3574C2.46094 11.7546 2.55208 12.1029 2.73438 12.4023C2.92318 12.7018 3.18034 12.9329 3.50586 13.0957C3.83789 13.252 4.21875 13.3301 4.64844 13.3301C5.11068 13.3301 5.50456 13.2324 5.83008 13.0371C6.1556 12.8418 6.40299 12.5553 6.57227 12.1777C6.74154 11.7936 6.82617 11.3249 6.82617 10.7715V0.449219H9.00391V10.7715C9.00391 11.7025 8.82487 12.5 8.4668 13.1641C8.11523 13.8216 7.61393 14.3262 6.96289 14.6777C6.31185 15.0228 5.54036 15.1953 4.64844 15.1953ZM13.7992 8.63281L13.9359 5.63477L11.4164 7.26562L10.6352 5.91797L13.3109 4.55078L10.6352 3.18359L11.4164 1.81641L13.9359 3.44727L13.7992 0.449219H15.3422L15.2055 3.44727L17.725 1.81641L18.5063 3.18359L15.8305 4.55078L18.5063 5.91797L17.725 7.26562L15.2055 5.63477L15.3422 8.63281H13.7992Z" fill="#FAFAFA"></path>
  </symbol>
  <symbol fill="none" xmlns="http://www.w3.org/2000/svg" viewBox="0 0 34 17" id="jefferson_">
    <path d="M29.7194 8.05263L29.8437 5.43035L27.5525 6.8568L26.842 5.67806L29.2754 4.48223L26.842 3.2864L27.5525 2.09057L29.8437 3.51702L29.7194 0.894737H31.1226L30.9982 3.51702L33.2895 2.09057L33.9999 3.2864L31.5666 4.48223L33.9999 5.67806L33.2895 6.8568L30.9982 5.43035L31.1226 8.05263H29.7194Z" fill="#FAFAFA"></path>
    <path d="M24.5506 3.80263V5.3082H18.7896V3.80263H24.5506ZM20.3599 13.4211V2.68421C20.3599 2.08772 20.4999 1.5916 20.7799 1.19585C21.066 0.794366 21.4372 0.49612 21.8937 0.301113C22.3563 0.100371 22.8524 0 23.3819 0C23.7897 0 24.1367 0.0315452 24.4227 0.0946356C24.7088 0.157726 24.9188 0.212213 25.0527 0.258097L24.578 1.77227C24.4867 1.74359 24.368 1.71204 24.2219 1.67763C24.0819 1.64322 23.9054 1.62601 23.6923 1.62601C23.2115 1.62601 22.8646 1.74072 22.6515 1.97014C22.4385 2.19383 22.332 2.52075 22.332 2.95091V13.4211H20.3599Z" fill="#FAFAFA"></path>
    <path d="M19.1822 3.80263V5.3082H13.4211V3.80263H19.1822ZM14.9915 13.4211V2.68421C14.9915 2.08772 15.1315 1.5916 15.4115 1.19585C15.6975 0.794366 16.0688 0.49612 16.5253 0.301113C16.9879 0.100371 17.484 0 18.0135 0C18.4213 0 18.7683 0.0315452 19.0543 0.0946356C19.3404 0.157726 19.5504 0.212213 19.6843 0.258097L19.2095 1.77227C19.1182 1.74359 18.9996 1.71204 18.8535 1.67763C18.7135 1.64322 18.537 1.62601 18.3239 1.62601C17.8431 1.62601 17.4962 1.74072 17.2831 1.97014C17.0701 2.19383 16.9636 2.52075 16.9636 2.95091V13.4211H14.9915Z" fill="#FAFAFA"></path>
    <path d="M9.18603 13.4211C8.21939 13.4211 7.38241 13.2194 6.67511 12.816C5.96781 12.4127 5.4226 11.8446 5.03947 11.1118C4.66225 10.3733 4.47363 9.51261 4.47363 8.52982C4.47363 7.55271 4.6593 6.69206 5.03063 5.94787C5.40786 5.20368 5.93539 4.62423 6.61322 4.20952C7.29695 3.78914 8.09855 3.57895 9.01805 3.57895C9.57799 3.57895 10.1203 3.667 10.6448 3.84311C11.1694 4.01921 11.641 4.29758 12.0594 4.6782C12.4779 5.05881 12.808 5.55305 13.0497 6.1609C13.2972 6.76875 13.421 7.50159 13.421 8.3594V9.02406H5.56111V7.63509H12.4308L11.5378 8.09524C11.5378 7.51011 11.4435 6.99315 11.2549 6.54436C11.0663 6.09557 10.7834 5.7462 10.4061 5.49624C10.0348 5.2406 9.5721 5.11278 9.01805 5.11278C8.46399 5.11278 7.98951 5.2406 7.5946 5.49624C7.20559 5.75188 6.90793 6.08989 6.70163 6.51028C6.49534 6.93066 6.39219 7.39081 6.39219 7.89073V8.83659C6.39219 9.48989 6.51007 10.0438 6.74584 10.4982C6.98161 10.9527 7.30873 11.2992 7.72722 11.5378C8.1516 11.7764 8.64377 11.8957 9.20371 11.8957C9.56915 11.8957 9.89923 11.8446 10.1939 11.7424C10.4945 11.6401 10.7539 11.4867 10.972 11.2822C11.1901 11.0777 11.3551 10.8249 11.4671 10.5238L13.2884 10.8561C13.141 11.3674 12.8817 11.8162 12.5104 12.2025C12.139 12.5888 11.6704 12.8899 11.1046 13.1058C10.5446 13.316 9.90512 13.4211 9.18603 13.4211Z" fill="#FAFAFA"></path>
    <path d="M1.52903 3.72496H3.34371V14.0183C3.34931 14.6636 3.2373 15.2081 3.00766 15.6518C2.77802 16.0954 2.44197 16.4296 1.99951 16.6543C1.55704 16.8848 1.01376 17 0.369657 17H0V15.3838H0.294045C0.730912 15.3838 1.04456 15.2657 1.23499 15.0295C1.42542 14.7933 1.52343 14.4533 1.52903 14.0097V3.72496ZM2.42797 2.23843C2.10872 2.23843 1.83708 2.12896 1.61305 1.91002C1.38901 1.69107 1.277 1.42891 1.277 1.12354C1.277 0.812405 1.38901 0.547365 1.61305 0.328419C1.83708 0.109473 2.10872 0 2.42797 0C2.74162 0 3.01046 0.109473 3.23449 0.328419C3.46413 0.547365 3.57895 0.812405 3.57895 1.12354C3.57895 1.42891 3.46413 1.69107 3.23449 1.91002C3.01046 2.12896 2.74162 2.23843 2.42797 2.23843Z" fill="#FAFAFA"></path>
  </symbol>
  <symbol fill="none" xmlns="http://www.w3.org/2000/svg" viewBox="0 0 32 32" id="arrow-narrow-right-1">
    <path d="M5.33325 16H26.6666" stroke="#FAFAFA" stroke-width="2" stroke-linecap="round" stroke-linejoin="round"></path>
    <path d="M18.6667 8L26.6667 16L18.6667 24" stroke="#FAFAFA" stroke-width="2" stroke-linecap="round" stroke-linejoin="round"></path>
  </symbol>
  <symbol fill="none" xmlns="http://www.w3.org/2000/svg" viewBox="0 0 32 32" id="arrow-narrow-right">
    <path d="M26.6667 16H5.33342" stroke="#FAFAFA" stroke-width="2" stroke-linecap="round" stroke-linejoin="round"></path>
    <path d="M13.3333 24L5.33325 16L13.3333 8" stroke="#FAFAFA" stroke-width="2" stroke-linecap="round" stroke-linejoin="round"></path>
  </symbol>
  <symbol fill="none" xmlns="http://www.w3.org/2000/svg" viewBox="0 0 20 20" id="icon-2">
    <path d="M15 12.5L10 7.5L5 12.5" stroke="#FAFAFA" stroke-width="2"></path>
  </symbol>
  <symbol fill="none" xmlns="http://www.w3.org/2000/svg" viewBox="0 0 24 24" id="hourglass-02">
    <path d="M18.1626 2H5.83744C5.37494 2 5 2.37494 5 2.83744C5 5.50268 6.05876 8.05876 7.94337 9.94337L9.16256 11.1626C9.28363 11.2836 9.34417 11.3442 9.3875 11.4023C9.65188 11.7569 9.65188 12.2431 9.3875 12.5977C9.34417 12.6558 9.28363 12.7164 9.16256 12.8374L7.94337 14.0566C6.05876 15.9412 5 18.4973 5 21.1626C5 21.6251 5.37494 22 5.83744 22H18.1626C18.6251 22 19 21.6251 19 21.1626C19 18.4973 17.9412 15.9412 16.0566 14.0566L14.8374 12.8374C14.7164 12.7164 14.6558 12.6558 14.6125 12.5977C14.3481 12.2431 14.3481 11.7569 14.6125 11.4023C14.6558 11.3442 14.7164 11.2836 14.8374 11.1626L16.0566 9.94337C17.9412 8.05876 19 5.50268 19 2.83744C19 2.37494 18.6251 2 18.1626 2Z" stroke="#FAFAFA" stroke-width="2" stroke-linecap="round" stroke-linejoin="round"></path>
  </symbol>
  <symbol fill="none" xmlns="http://www.w3.org/2000/svg" viewBox="0 0 24 24" id="brush-01">
    <path d="M12.7778 15L9 11.2222" stroke="#FAFAFA" stroke-width="2" stroke-linecap="round" stroke-linejoin="round"></path>
    <path d="M2 22C4 22 6.60801 22.3417 7.97485 20.9749C9.34168 19.608 9.34168 17.392 7.97485 16.0251C6.60801 14.6583 4.39194 14.6583 3.0251 16.0251C1.65827 17.392 3.0251 20 2 22Z" stroke="#FAFAFA" stroke-width="2" stroke-linecap="round" stroke-linejoin="round"></path>
    <path d="M7.99995 16C7.50853 15.5086 7.26283 15.2629 7.12391 15.0056C6.79079 14.3885 6.80514 13.6421 7.16173 13.0384C7.31043 12.7866 7.5654 12.5505 8.07534 12.0783L17.9434 2.94124C18.8126 2.13645 20.1624 2.1624 20.9999 3C21.8375 3.83759 21.8635 5.18737 21.0587 6.05654L11.9216 15.9246C11.4494 16.4345 11.2134 16.6895 10.9616 16.8382C10.3578 17.1948 9.6114 17.2091 8.99438 16.876C8.73707 16.7371 8.49136 16.4914 7.99995 16Z" stroke="#FAFAFA" stroke-width="2" stroke-linecap="round" stroke-linejoin="round"></path>
  </symbol>
  <symbol fill="none" xmlns="http://www.w3.org/2000/svg" viewBox="0 0 24 24" id="message-chat-circle">
    <path d="M6.09436 11.2288C6.03221 10.8282 5.99996 10.4179 5.99996 10C5.99996 5.58172 9.60525 2 14.0526 2C18.4999 2 22.1052 5.58172 22.1052 10C22.1052 10.9981 21.9213 11.9535 21.5852 12.8345C21.5154 13.0175 21.4804 13.109 21.4646 13.1804C21.4489 13.2512 21.4428 13.301 21.4411 13.3735C21.4394 13.4466 21.4493 13.5272 21.4692 13.6883L21.8717 16.9585C21.9153 17.3125 21.9371 17.4895 21.8782 17.6182C21.8266 17.731 21.735 17.8205 21.6211 17.8695C21.4911 17.9254 21.3146 17.8995 20.9617 17.8478L17.7765 17.3809C17.6101 17.3565 17.527 17.3443 17.4512 17.3448C17.3763 17.3452 17.3245 17.3507 17.2511 17.3661C17.177 17.3817 17.0823 17.4172 16.893 17.4881C16.0097 17.819 15.0524 18 14.0526 18C13.6344 18 13.2237 17.9683 12.8227 17.9073M7.63158 22C10.5965 22 13 19.5376 13 16.5C13 13.4624 10.5965 11 7.63158 11C4.66668 11 2.26316 13.4624 2.26316 16.5C2.26316 17.1106 2.36028 17.6979 2.53955 18.2467C2.61533 18.4787 2.65322 18.5947 2.66566 18.6739C2.67864 18.7567 2.68091 18.8031 2.67608 18.8867C2.67145 18.9668 2.65141 19.0573 2.61134 19.2383L2 22L4.9948 21.591C5.15827 21.5687 5.24 21.5575 5.31137 21.558C5.38652 21.5585 5.42641 21.5626 5.50011 21.5773C5.5701 21.5912 5.67416 21.6279 5.88227 21.7014C6.43059 21.8949 7.01911 22 7.63158 22Z" stroke="#FAFAFA" stroke-width="2" stroke-linecap="round" stroke-linejoin="round"></path>
  </symbol>
  <symbol fill="none" xmlns="http://www.w3.org/2000/svg" viewBox="0 0 24 24" id="user-01">
    <path d="M20 21C20 19.6044 20 18.9067 19.8278 18.3389C19.44 17.0605 18.4395 16.06 17.1611 15.6722C16.5933 15.5 15.8956 15.5 14.5 15.5H9.5C8.10444 15.5 7.40665 15.5 6.83886 15.6722C5.56045 16.06 4.56004 17.0605 4.17224 18.3389C4 18.9067 4 19.6044 4 21" stroke="#FAFAFA" stroke-width="2" stroke-linecap="round" stroke-linejoin="round"></path>
    <path d="M12 12C14.4853 12 16.5 9.98528 16.5 7.5C16.5 5.01472 14.4853 3 12 3C9.51472 3 7.5 5.01472 7.5 7.5C7.5 9.98528 9.51472 12 12 12Z" stroke="#FAFAFA" stroke-width="2" stroke-linecap="round" stroke-linejoin="round"></path>
  </symbol>
  <symbol fill="none" xmlns="http://www.w3.org/2000/svg" viewBox="0 0 20 20" id="23ka">
    <path d="M15 12.5L10 7.5L5 12.5" stroke="#FAFAFA" stroke-width="2"></path>
  </symbol>
  <symbol fill="none" xmlns="http://www.w3.org/2000/svg" viewBox="0 0 20 20" id="Icon">
    <path d="M15 7.5L10 12.5L5 7.5" stroke="#FAFAFA" stroke-width="2"></path>
  </symbol>
  <symbol fill="none" xmlns="http://www.w3.org/2000/svg" viewBox="0 0 28 28" id="burger">
    <path d="M3.5 9.91666H24.5M3.5 18.0833H24.5" stroke-width="2" stroke-linecap="round" stroke-linejoin="round"></path>
  </symbol>
  <symbol fill="none" xmlns="http://www.w3.org/2000/svg" viewBox="0 0 28 28" id="x">
    <path d="M21 7L7 21" stroke-width="2" stroke-linecap="round" stroke-linejoin="round"></path>
    <path d="M7 7L21 21" stroke-width="2" stroke-linecap="round" stroke-linejoin="round"></path>
  </symbol>
</svg>

